<svg xmlns="http://www.w3.org/2000/svg"  viewBox="0 0 24 24" width="100px" height="100px"><linearGradient id="cDJ_ES54lCPEAPSpnRfSZa" x1="12" x2="12" y1=".071" y2="24.67" gradientUnits="userSpaceOnUse"><stop offset="0" stop-color="#b2d235"/><stop offset="1" stop-color="#00aaad"/></linearGradient><path fill="url(#cDJ_ES54lCPEAPSpnRfSZa)" d="M21,5h-5V3c0-0.5522847-0.4477148-1-1-1H9C8.4477148,2,8,2.4477153,8,3v2H3C2.4477153,5,2,5.4477153,2,6 s0.4477153,1,1,1h2v12c0.0018187,1.6561012,1.3438997,2.9981804,3,3h8c1.6561012-0.0018196,2.9981804-1.3438988,3-3V7h2 c0.5522842,0,1-0.4477153,1-1S21.5522842,5,21,5z M10,4h4v1h-4V4z M17,19c-0.0007153,0.5519886-0.4480114,0.9992847-1,1H8 c-0.5519876-0.0007153-0.9992838-0.4480114-1-1V7h10V19z"/><linearGradient id="cDJ_ES54lCPEAPSpnRfSZb" x1="10" x2="10" y1=".071" y2="24.67" gradientUnits="userSpaceOnUse"><stop offset="0" stop-color="#b2d235"/><stop offset="1" stop-color="#00aaad"/></linearGradient><path fill="url(#cDJ_ES54lCPEAPSpnRfSZb)" d="M10,17.5c0.5522852,0,1-0.4477158,1-1v-6c0-0.5522852-0.4477148-1-1-1s-1,0.4477148-1,1v6 C9,17.0522842,9.4477148,17.5,10,17.5z"/><linearGradient id="cDJ_ES54lCPEAPSpnRfSZc" x1="14" x2="14" y1=".071" y2="24.67" gradientUnits="userSpaceOnUse"><stop offset="0" stop-color="#b2d235"/><stop offset="1" stop-color="#00aaad"/></linearGradient><path fill="url(#cDJ_ES54lCPEAPSpnRfSZc)" d="M14,17.5c0.5522852,0,1-0.4477158,1-1v-6c0-0.5522852-0.4477148-1-1-1s-1,0.4477148-1,1v6 C13,17.0522842,13.4477148,17.5,14,17.5z"/></svg>